<svg xmlns="http://www.w3.org/2000/svg" viewBox="0 0 11.545 10.7">
  <defs>
    <style>
      .cls-1 {
        fill: red;
      }
    </style>
  </defs>
  <g id="download" transform="translate(0 -17.25)">
    <g id="Group_306" data-name="Group 306" transform="translate(0 17.25)">
      <path id="Path_604" data-name="Path 604" class="cls-1" d="M11.215,228.2a.329.329,0,0,0-.331.331v3.009A1.484,1.484,0,0,1,9.4,233.021H2.144a1.484,1.484,0,0,1-1.482-1.482v-3.058a.331.331,0,1,0-.662,0v3.058a2.146,2.146,0,0,0,2.144,2.144H9.4a2.146,2.146,0,0,0,2.144-2.144V228.53A.331.331,0,0,0,11.215,228.2Z" transform="translate(0 -222.983)"/>
      <path id="Path_605" data-name="Path 605" class="cls-1" d="M138.427,25.323a.333.333,0,0,0,.233.1.323.323,0,0,0,.233-.1l2.1-2.1a.331.331,0,1,0-.468-.468l-1.536,1.539V17.581a.331.331,0,0,0-.662,0v6.711l-1.539-1.539a.331.331,0,0,0-.468.468Z" transform="translate(-132.887 -17.25)"/>
    </g>
  </g>
</svg>
