<svg xmlns="http://www.w3.org/2000/svg" viewBox="0 0 11.379 8.659">
  <defs>
    <style>
      .cls-1 {
        fill: red;
      }
    </style>
  </defs>
  <g id="envelope" transform="translate(0 -57.75)">
    <g id="Group_307" data-name="Group 307" transform="translate(0 57.75)">
      <path id="Path_606" data-name="Path 606" class="cls-1" d="M9.99,57.75h-8.6A1.393,1.393,0,0,0,0,59.141v5.877a1.393,1.393,0,0,0,1.391,1.391h8.6a1.393,1.393,0,0,0,1.391-1.391V59.144A1.391,1.391,0,0,0,9.99,57.75Zm.756,7.268a.757.757,0,0,1-.756.756h-8.6a.757.757,0,0,1-.756-.756V59.144a.757.757,0,0,1,.756-.756h8.6a.757.757,0,0,1,.756.756v5.874Z" transform="translate(0 -57.75)"/>
      <path id="Path_607" data-name="Path 607" class="cls-1" d="M61.616,111.955l2.783-2.5a.318.318,0,1,0-.426-.473l-3.838,3.444-.749-.669s0,0,0-.007a.471.471,0,0,0-.052-.045l-3.047-2.726a.319.319,0,1,0-.424.476l2.816,2.517-2.8,2.625a.319.319,0,0,0-.014.45.325.325,0,0,0,.233.1.319.319,0,0,0,.217-.085l2.846-2.663.772.69a.317.317,0,0,0,.424,0l.793-.711,2.83,2.689a.319.319,0,0,0,.45-.012.319.319,0,0,0-.012-.45Z" transform="translate(-54.44 -107.698)"/>
    </g>
  </g>
</svg>
