<svg xmlns="http://www.w3.org/2000/svg" viewBox="0 0 9.189 11.955">
  <defs>
    <style>
      .cls-1 {
        fill: #a42f33;
      }
    </style>
  </defs>
  <g id="locked-padlock_1_" data-name="locked-padlock (1)" transform="translate(-56.313)">
    <path id="Path_141" data-name="Path 141" class="cls-1" d="M64.85,4.828h-.233V3.738A3.717,3.717,0,0,0,61.017,0H60.8a3.717,3.717,0,0,0-3.6,3.737v1.09h-.233a.756.756,0,0,0-.652.828v5.468a.76.76,0,0,0,.652.831H64.85a.76.76,0,0,0,.652-.831V5.656A.756.756,0,0,0,64.85,4.828Zm-3.2,3.556v1.652a.353.353,0,0,1-.348.349h-.782a.353.353,0,0,1-.348-.349V8.384a1,1,0,0,1,.629-1.7c.055,0,.164,0,.218,0a1,1,0,0,1,.629,1.7Zm1.435-3.556H58.733V3.738a2.174,2.174,0,1,1,4.348,0v1.09Z" transform="translate(0 0)"/>
  </g>
</svg>
