<svg xmlns="http://www.w3.org/2000/svg" viewBox="0 0 9.625 9.608">
  <defs>
    <style>
      .cls-1 {
        fill: red;
      }
    </style>
  </defs>
  <g id="logout_1_" data-name="logout (1)" transform="translate(-6.4 -6.4)">
    <g id="Group_308" data-name="Group 308" transform="translate(6.4 6.4)">
      <path id="Path_608" data-name="Path 608" class="cls-1" d="M37.968,38.632a.34.34,0,0,0,.48,0L40.683,36.4a.22.22,0,0,0,.041-.05.029.029,0,0,0,.008-.017.181.181,0,0,1,.025-.041c0-.008,0-.017.008-.017.008-.017.008-.025.017-.041a.269.269,0,0,0,0-.132.063.063,0,0,0-.017-.041c0-.008,0-.017-.008-.017l-.025-.05a.008.008,0,0,0-.008-.008.22.22,0,0,0-.041-.05L38.448,33.7a.339.339,0,0,0-.48.48l1.655,1.655H33.739a.339.339,0,0,0,0,.679h5.884l-1.655,1.655A.32.32,0,0,0,37.968,38.632Z" transform="translate(-31.166 -31.349)"/>
      <path id="Path_609" data-name="Path 609" class="cls-1" d="M6.739,16.008h4.469a.336.336,0,0,0,.339-.339V12.334a.339.339,0,1,0-.679,0v3H7.079V7.079h3.79v3a.339.339,0,0,0,.679,0V6.739a.336.336,0,0,0-.339-.339H6.739a.336.336,0,0,0-.339.339v8.93A.346.346,0,0,0,6.739,16.008Z" transform="translate(-6.4 -6.4)"/>
    </g>
  </g>
</svg>
