<svg xmlns="http://www.w3.org/2000/svg" viewBox="0 0 11.811 14.173">
  <defs>
    <style>
      .cls-1 {
        fill: #fff;
      }
    </style>
  </defs>
  <g id="notification_1_" data-name="notification (1)" transform="translate(-42.675)">
    <g id="Group_3" data-name="Group 3" transform="translate(42.675)">
      <g id="Group_2" data-name="Group 2">
        <path id="Path_132" data-name="Path 132" class="cls-1" d="M54.444,11.955l-1.014-1.69a5.02,5.02,0,0,1-.716-2.583V6.2a4.139,4.139,0,0,0-2.953-3.96V1.181a1.181,1.181,0,1,0-2.362,0v1.06A4.139,4.139,0,0,0,44.446,6.2V7.681a5.024,5.024,0,0,1-.715,2.583l-1.014,1.69a.3.3,0,0,0,.253.448H54.191a.3.3,0,0,0,.253-.447Z" transform="translate(-42.675)"/>
      </g>
    </g>
    <g id="Group_5" data-name="Group 5" transform="translate(46.721 12.992)">
      <g id="Group_4" data-name="Group 4">
        <path id="Path_133" data-name="Path 133" class="cls-1" d="M188.815,469.333a2.055,2.055,0,0,0,3.719,0Z" transform="translate(-188.815 -469.333)"/>
      </g>
    </g>
  </g>
</svg>
