<svg xmlns="http://www.w3.org/2000/svg" viewBox="0 0 23.482 31.694">
  <defs>
    <style>
      .cls-1 {
        fill: #283148;
      }
    </style>
  </defs>
  <g id="protection-shield-with-a-check-mark" transform="translate(-4.106)">
    <path id="Path_139" data-name="Path 139" class="cls-1" d="M23.112,9.35a39.449,39.449,0,0,0-9.006,7.744l-3.361-2.633A11.683,11.683,0,0,0,8.86,16.086l6.121,6.223a.225.225,0,0,0,.174.074.2.2,0,0,0,.047,0,.244.244,0,0,0,.178-.152A37.45,37.45,0,0,1,23.78,10.6a.246.246,0,0,0,.059-.275A6.841,6.841,0,0,0,23.112,9.35Z"/>
    <path id="Path_140" data-name="Path 140" class="cls-1" d="M27.126,3.842C17.858,3.842,16.29.324,16.276.291A.466.466,0,0,0,15.85,0h-.008a.475.475,0,0,0-.428.283C15.4.32,13.8,3.842,4.568,3.842a.461.461,0,0,0-.462.461V20.067c0,6.453,11.084,11.383,11.553,11.59a.491.491,0,0,0,.374,0c.473-.207,11.555-5.137,11.555-11.59V4.3A.465.465,0,0,0,27.126,3.842ZM25.038,19.15c0,5.049-8.678,8.912-9.047,9.072a.357.357,0,0,1-.291,0c-.365-.16-9.046-4.023-9.046-9.072V6.811a.363.363,0,0,1,.362-.363c7.229,0,8.482-2.756,8.494-2.783a.367.367,0,0,1,.334-.223h.006a.359.359,0,0,1,.332.229c.012.025,1.24,2.777,8.494,2.777a.362.362,0,0,1,.361.363V19.15Z"/>
  </g>
</svg>
