<svg xmlns="http://www.w3.org/2000/svg" viewBox="0 0 27.174 27.174">
  <defs>
    <style>
      .cls-1 {
        fill: #283148;
      }
    </style>
  </defs>
  <path id="user_3_" data-name="user (3)" class="cls-1" d="M27.174,13.587A13.587,13.587,0,1,0,4.41,23.6l-.013.011.441.372c.029.024.06.044.088.068.234.194.477.378.724.557.08.058.16.116.242.172q.4.273.811.518l.182.1c.3.172.612.335.929.484l.07.032a13.465,13.465,0,0,0,3.286,1.04l.091.016c.358.062.719.111,1.085.144l.134.01c.365.03.733.049,1.107.049s.735-.019,1.1-.048l.138-.01q.545-.05,1.076-.142l.092-.017a13.464,13.464,0,0,0,3.24-1.015l.113-.051q.457-.215.895-.462l.217-.125c.266-.157.527-.32.781-.494.091-.062.181-.128.271-.193.217-.156.43-.317.637-.486.046-.037.1-.069.14-.107l.452-.377-.013-.011A13.552,13.552,0,0,0,27.174,13.587Zm-26.186,0a12.6,12.6,0,1,1,20.954,9.419,3.7,3.7,0,0,0-.441-.265l-4.183-2.091a1.1,1.1,0,0,1-.609-.985V18.2c.1-.12.2-.255.3-.4a10.068,10.068,0,0,0,1.293-2.531,1.793,1.793,0,0,0,1.03-1.625V11.892a1.8,1.8,0,0,0-.438-1.17V8.416a3.985,3.985,0,0,0-.93-2.9,5.561,5.561,0,0,0-4.381-1.566A5.563,5.563,0,0,0,9.206,5.518a3.986,3.986,0,0,0-.93,2.9v2.306a1.8,1.8,0,0,0-.438,1.17v1.752A1.8,1.8,0,0,0,8.5,15.037a9.284,9.284,0,0,0,1.528,3.157v1.43a1.1,1.1,0,0,1-.574.967L5.547,22.722a3.57,3.57,0,0,0-.372.235A12.569,12.569,0,0,1,.988,13.587Z"/>
</svg>
